<svg viewBox="0 0 32 32" fill="none" xmlns="http://www.w3.org/2000/svg">
  <rect width="32" height="32" rx="8" fill="url(#bgGrad)"/>
  <defs>
    <linearGradient id="bgGrad" x1="0" y1="0" x2="32" y2="32" gradientUnits="userSpaceOnUse">
      <stop offset="0%" stopColor="#0891b2" />
      <stop offset="50%" stopColor="#14b8a6" />
      <stop offset="100%" stopColor="#10b981" />
    </linearGradient>
  </defs>
  <path
    d="M16 4C11.5 4 8 7.2 8 12C8 16 9.3 19.3 10.7 22.7C11.7 25.3 12.7 28 14.7 28C15.7 28 16 24.7 16 23.3C16 24.7 16.3 28 17.3 28C19.3 28 20.3 25.3 21.3 22.7C22.7 19.3 24 16 24 12C24 7.2 20.5 4 16 4Z"
    fill="white"
  />
  <path
    d="M16 8.5V16.5M12 12.5H20"
    stroke="#0891b2"
    stroke-width="2.5"
    stroke-linecap="round"
    stroke-linejoin="round"
  />
</svg>
