<svg viewBox="0 0 24 24" fill="none" xmlns="http://www.w3.org/2000/svg">
  <defs>
    <linearGradient id="dentalGrad" x1="2" y1="2" x2="22" y2="22" gradientUnits="userSpaceOnUse">
      <stop offset="0%" stop-color="#0891b2" />
      <stop offset="50%" stop-color="#14b8a6" />
      <stop offset="100%" stop-color="#10b981" />
    </linearGradient>
  </defs>
  <path
    d="M12 2C8.5 2 6 4.5 6 8C6 11 7 13.5 8 16C8.8 18 9.5 21 11 21C11.8 21 12 18.5 12 17.5C12 18.5 12.2 21 13 21C14.5 21 15.2 18 16 16C17 13.5 18 11 18 8C18 4.5 15.5 2 12 2Z"
    fill="url(#dentalGrad)"
  />
  <path
    d="M12 5.5V11.5M9 8.5H15"
    stroke="#ffffff"
    stroke-width="2"
    stroke-linecap="round"
    stroke-linejoin="round"
    opacity="0.9"
  />
</svg>
